<svg width="55" height="55" viewBox="0 0 55 55" fill="none" xmlns="http://www.w3.org/2000/svg">
<g clip-path="url(#clip0_42_149)">
<path d="M27.1396 22.4951C24.9631 22.4951 23.1823 20.7484 23.1823 18.6136C23.1823 16.4788 24.9631 14.7322 27.1396 14.7322C29.3162 14.7322 31.097 16.4788 31.097 18.6136C31.097 20.7484 29.3162 22.4951 27.1396 22.4951ZM27.1396 15.8134C25.5849 15.8134 24.3129 17.0611 24.3129 18.5859C24.3129 20.1108 25.5849 21.3584 27.1396 21.3584C28.6943 21.3584 29.9663 20.1108 29.9663 18.5859C29.9663 17.0611 28.6943 15.8134 27.1396 15.8134Z" fill="black"/>
<path d="M34.2628 26.9587H20.0163C19.2248 26.9587 18.6029 26.3211 18.6029 25.5725V25.1566C18.6029 24.3803 19.253 23.7704 20.0163 23.7704H34.2628C35.0543 23.7704 35.6761 24.4081 35.6761 25.1566V25.5725C35.6761 26.3211 35.0543 26.9587 34.2628 26.9587ZM20.0163 24.8794C19.8467 24.8794 19.7336 25.018 19.7336 25.1566V25.5725C19.7336 25.7388 19.8749 25.8497 20.0163 25.8497H34.2628C34.4324 25.8497 34.5455 25.7111 34.5455 25.5725V25.1566C34.5455 24.9903 34.4041 24.8794 34.2628 24.8794H20.0163Z" fill="black"/>
<path d="M32.0862 31.0898H22.1928C21.4013 31.0898 20.7794 30.4522 20.7794 29.7036V29.2877C20.7794 28.5114 21.4296 27.9015 22.1928 27.9015H32.0579C32.8494 27.9015 33.4713 28.5392 33.4713 29.2877V29.7036C33.4995 30.4799 32.8494 31.0898 32.0862 31.0898ZM22.1928 29.0105C22.0232 29.0105 21.9101 29.1491 21.9101 29.2877V29.7036C21.9101 29.8699 22.0514 29.9808 22.1928 29.9808H32.0579C32.2275 29.9808 32.3406 29.8422 32.3406 29.7036V29.2877C32.3406 29.1214 32.1993 29.0105 32.0579 29.0105H22.1928Z" fill="black"/>
<path d="M30.2771 35.2484H24.0018C23.2104 35.2484 22.5885 34.6107 22.5885 33.8622V33.4463C22.5885 32.67 23.2386 32.0601 24.0018 32.0601H30.2771C31.0686 32.0601 31.6905 32.6977 31.6905 33.4463V33.8622C31.6905 34.6107 31.0686 35.2484 30.2771 35.2484ZM24.0018 33.1413C23.8322 33.1413 23.7192 33.2799 23.7192 33.4186V33.8344C23.7192 34.0008 23.8605 34.1117 24.0018 34.1117H30.2771C30.4467 34.1117 30.5598 33.9731 30.5598 33.8344V33.4186C30.5598 33.2522 30.4184 33.1413 30.2771 33.1413H24.0018Z" fill="black"/>
<path d="M28.5812 39.3794H25.698C24.9065 39.3794 24.2847 38.7417 24.2847 37.9931V37.5773C24.2847 36.801 24.9348 36.191 25.698 36.191H28.553C29.3444 36.191 29.9663 36.8287 29.9663 37.5773V37.9931C29.9946 38.7417 29.3444 39.3794 28.5812 39.3794ZM25.698 37.3C25.5284 37.3 25.4153 37.4387 25.4153 37.5773V37.9931C25.4153 38.1595 25.5567 38.2704 25.698 38.2704H28.553C28.7226 38.2704 28.8356 38.1318 28.8356 37.9931V37.5773C28.8356 37.4109 28.6943 37.3 28.553 37.3H25.698Z" fill="black"/>
<g filter="url(#filter0_d_42_149)">
<circle cx="27.25" cy="27.25" r="22.75" stroke="black" shape-rendering="crispEdges"/>
</g>
</g>
<defs>
<filter id="filter0_d_42_149" x="0" y="4" width="54.5" height="54.5" filterUnits="userSpaceOnUse" color-interpolation-filters="sRGB">
<feFlood flood-opacity="0" result="BackgroundImageFix"/>
<feColorMatrix in="SourceAlpha" type="matrix" values="0 0 0 0 0 0 0 0 0 0 0 0 0 0 0 0 0 0 127 0" result="hardAlpha"/>
<feOffset dy="4"/>
<feGaussianBlur stdDeviation="2"/>
<feComposite in2="hardAlpha" operator="out"/>
<feColorMatrix type="matrix" values="0 0 0 0 0 0 0 0 0 0 0 0 0 0 0 0 0 0 0.25 0"/>
<feBlend mode="normal" in2="BackgroundImageFix" result="effect1_dropShadow_42_149"/>
<feBlend mode="normal" in="SourceGraphic" in2="effect1_dropShadow_42_149" result="shape"/>
</filter>
<clipPath id="clip0_42_149">
<rect width="55" height="55" fill="white"/>
</clipPath>
</defs>
</svg>
