<svg width="352" height="495" viewBox="0 0 352 495" fill="none" xmlns="http://www.w3.org/2000/svg">
<g clip-path="url(#clip0_3_2)">
<rect width="352" height="495" fill="white"/>
<path d="M99.748 -114L59.4369 -84.5325L25.5278 -57.716L-5.8508 -33.4293L-30.65 -11.1665L-56.4615 10.0844L-86.3217 36.3949L-107.577 56.6341L-128 80.2935" stroke="white" stroke-width="5"/>
<path d="M203.517 -39.2934C203.517 -39.2934 151.388 -31.7038 163.206 -9.82594C175.024 12.0519 168.418 43.6858 145.821 41.2772C123.225 38.8685 150.537 86.1884 111.566 56.6335C72.5945 27.0786 62.8212 16.3639 54.7221 52.2878C46.623 88.2117 90.6382 99.5667 69.9053 111.101C51.8839 121.128 41.136 75.7611 23.3435 86.1879C7.42096 95.5189 26.0387 117.77 15.2458 132.737C4.89513 147.092 -24.2309 155 -24.2309 155" stroke="white" stroke-width="5"/>
<path d="M104.336 -110.697C65.8079 -82.5323 63.5027 -82.1967 64.0253 -81.2293C32.1382 -54.6311 31.8461 -53.2323 30.8469 -53.3388C-0.143365 -30.2326 1.06436 -28.1401 -0.658931 -29.447C-26.0848 -9.47558 -26.517 -9.94938 -26.8752 -8.36084C-51.9033 13.5389 -49.957 14.041 -50.8738 14.551C-80.2106 40.1415 -80.6858 38.1354 -81.4726 38.5965C-102.492 58.3533 -101.669 59.3372 -102.146 59.9991C-122.124 83.247 -123.412 83.5967 -123.412 83.5967" stroke="white" stroke-width="5"/>
<path d="M108.822 -107.467C72.0363 -80.5764 67.4777 -79.9127 68.5112 -77.9995C38.6008 -51.6149 38.0231 -48.8486 36.0471 -49.0592C5.43644 -27.107 7.82481 -22.9689 4.41686 -25.5534C-21.6217 -7.82201 -22.4763 -8.75899 -23.1846 -5.61752C-47.4471 16.9165 -43.5981 17.9094 -45.4111 18.9181C-74.2361 43.8047 -75.176 39.8374 -76.7319 40.7493C-97.521 60.0345 -95.8929 61.9803 -96.8367 63.2892C-116.379 86.1349 -118.926 86.8264 -118.926 86.8264" stroke="white" stroke-width="5"/>
<path d="M113.205 -104.312C78.1217 -78.6657 71.3614 -77.6815 72.894 -74.8443C44.9149 -48.6682 44.0582 -44.5658 41.1278 -44.8781C10.8881 -24.0534 14.4301 -17.9168 9.37609 -21.7496C-17.261 -6.20676 -18.5285 -7.59629 -19.5788 -2.9375C-43.0932 20.2162 -37.3851 21.6888 -40.0738 23.1847C-68.3988 47.3834 -69.7926 41.5001 -72.1001 42.8523C-92.6639 61.6768 -90.2495 64.5623 -91.6492 66.5034C-110.766 88.9562 -114.543 89.9817 -114.543 89.9817" stroke="white" stroke-width="5"/>
<path d="M117.485 -101.23C84.0646 -76.7998 75.1542 -75.5026 77.1742 -71.763C51.0812 -45.7906 49.952 -40.3834 46.0896 -40.7951C16.2122 -21.0715 20.8806 -12.9831 14.2193 -18.0349C-13.0024 -4.62932 -14.6729 -6.46078 -16.0573 -0.320309C-38.8412 23.4386 -31.3176 25.3795 -34.8615 27.3512C-62.6982 50.8783 -64.5353 43.1237 -67.5766 44.906C-87.9205 63.2806 -84.7382 67.0839 -86.583 69.6424C-105.284 91.7113 -110.263 93.063 -110.263 93.063" stroke="white" stroke-width="5"/>
<path d="M121.662 -98.2231C89.8641 -74.9787 78.8553 -73.3759 81.351 -68.7556C57.0987 -42.9821 55.7036 -36.3015 50.9316 -36.8102C21.4076 -18.1611 27.1755 -8.16792 18.9454 -14.4094C-8.84673 -3.08971 -10.9107 -5.35247 -12.6211 2.23408C-34.692 26.5836 -25.3967 28.9816 -29.7751 31.4176C-57.1352 54.2892 -59.405 44.7085 -63.1625 46.9104C-83.2917 64.846 -79.36 69.5449 -81.6392 72.7059C-99.9349 94.4003 -106.086 96.0703 -106.086 96.0703" stroke="white" stroke-width="5"/>
<path d="M125.736 -95.29C95.521 -73.2026 82.4655 -71.3018 85.4252 -65.8225C62.9682 -40.2429 61.3138 -32.3203 55.6546 -32.9235C26.4754 -15.3226 33.3156 -3.4715 23.5554 -10.8734C-4.79311 -1.58817 -7.24079 -4.27162 -9.26918 4.72539C-30.6446 29.6511 -19.6212 32.4949 -24.8137 35.3837C-51.7089 57.6159 -54.4007 46.254 -58.8568 48.8654C-78.7766 66.3726 -74.1139 71.9452 -76.8169 75.6939C-94.7171 97.0229 -102.012 99.0034 -102.012 99.0034" stroke="white" stroke-width="5"/>
<path d="M129.708 -92.4309C101.035 -71.4712 85.9849 -69.2799 89.3969 -62.9634C68.6899 -37.5727 66.7826 -28.4395 60.2587 -29.1349C31.4156 -12.5556 39.3011 1.10643 28.0494 -7.42658C-0.841501 -0.124449 -3.66322 -3.21796 -6.00157 7.15388C-26.6991 32.6411 -13.9912 35.9195 -19.9772 39.2498C-46.4193 60.8588 -49.5224 47.7607 -54.6594 50.7711C-74.3752 67.8608 -68.9999 74.285 -72.116 78.6064C-89.6308 99.5794 -98.0399 101.863 -98.0399 101.863" stroke="white" stroke-width="5"/>
<path d="M133.577 -89.646C106.407 -69.7848 89.413 -67.3106 93.2656 -60.1785C74.2633 -34.9719 72.1097 -24.6594 64.7433 -25.4446C36.2277 -9.86052 45.1313 5.5656 32.4268 -4.0692C3.00759 1.3012 -0.178463 -2.19175 -2.81874 9.51932C-22.856 35.5535 -8.50722 39.2552 -15.2661 43.0155C-41.2669 64.0175 -44.7707 49.2281 -50.571 52.6272C-70.0879 69.3103 -64.0186 76.564 -67.5371 81.4434C-84.6763 102.069 -94.1713 104.647 -94.1713 104.647" stroke="white" stroke-width="5"/>
<path d="M137.342 -86.935C111.635 -68.1432 92.7493 -65.3936 97.0307 -57.4676C79.6877 -32.4402 77.2944 -20.9798 69.1081 -21.8524C40.9112 -7.23699 50.8059 9.90627 36.6872 -0.801017C6.7537 2.68902 3.21299 -1.19274 0.278811 11.8219C-19.1157 38.3886 -3.16971 42.5023 -10.6809 46.6812C-36.2521 67.0922 -40.1459 50.6566 -46.5919 54.4341C-65.9153 70.7214 -59.1704 78.7824 -63.0805 84.205C-79.8543 104.493 -90.4062 107.358 -90.4062 107.358" stroke="white" stroke-width="5"/>
<path d="M141.004 -84.2981C116.72 -66.5463 95.9947 -63.5288 100.693 -54.8306C84.9643 -29.9776 82.3379 -17.4005 73.354 -18.3582C45.467 -4.68505 56.3257 14.1284 40.8315 2.37797C10.3978 4.03902 6.51211 -0.220921 3.29206 14.0617C-15.4773 41.1463 2.0223 45.6608 -6.22069 50.2468C-31.3741 70.0831 -35.6472 52.0462 -42.7212 56.1917C-61.8564 72.0939 -54.4543 80.9404 -58.7454 86.8913C-75.1636 106.851 -86.7436 109.995 -86.7436 109.995" stroke="white" stroke-width="5"/>
<path d="M144.564 -81.7353C121.663 -64.9944 99.1494 -61.7166 104.253 -52.2679C90.0931 -27.5843 87.24 -13.922 77.4809 -14.9623C49.8952 -2.20494 61.6908 18.2319 44.8597 5.4675C13.9398 5.35096 9.7189 0.723443 6.22102 16.2385C-11.9407 43.8264 7.06882 48.7304 -1.88541 53.7122C-26.6326 72.9898 -31.2745 53.3966 -38.9588 57.8998C-57.9111 73.4278 -49.8704 83.0376 -54.5317 89.502C-70.6044 109.143 -83.1835 112.558 -83.1835 112.558" stroke="white" stroke-width="5"/>
<path d="M148.021 -79.2465C126.463 -63.4873 102.213 -59.9566 107.71 -49.7791C95.0734 -25.26 92.0003 -10.5439 81.4884 -11.6644C54.1953 0.203584 66.9008 22.2168 48.7714 8.46784C17.3794 6.62507 12.8329 1.64061 9.06519 18.3524C-8.50648 46.4291 11.9694 51.7114 2.32443 57.0774C-22.0284 75.8126 -27.0283 54.708 -35.3054 59.5586C-54.08 74.7233 -45.419 85.0743 -50.4399 92.0373C-66.1771 111.368 -79.7265 115.047 -79.7265 115.047" stroke="white" stroke-width="5"/>
<path d="M151.375 -76.8317C131.12 -62.025 105.185 -58.249 111.064 -47.3643C99.9054 -23.0048 96.6187 -7.2663 85.3765 -8.46466C58.3672 2.54052 71.9555 26.0832 52.5665 11.379C20.7164 7.86135 15.854 2.53058 11.8246 20.4035C-5.1746 48.9545 16.7239 54.6038 6.40884 60.3426C-17.5613 78.5514 -22.9087 55.9806 -31.7608 61.1681C-50.363 75.9802 -41.1003 87.0504 -46.47 94.4972C-61.8817 113.527 -76.3725 117.462 -76.3725 117.462" stroke="white" stroke-width="5"/>
<path d="M154.626 -74.4914C135.634 -60.6079 108.065 -56.5941 114.315 -45.0239C104.589 -20.8192 101.095 -4.08959 89.1452 -5.36341C62.4111 4.80539 76.8551 29.8306 56.2451 14.2004C23.951 9.05933 18.7824 3.39285 14.4992 22.3913C-1.94507 51.402 21.3324 57.4071 10.3678 63.5073C-13.2314 81.2059 -18.9155 57.2137 -28.3251 62.7279C-46.7602 77.1982 -36.9142 88.9656 -42.6221 96.8813C-57.7182 115.62 -73.1215 119.802 -73.1215 119.802" stroke="white" stroke-width="5"/>
<path d="M157.775 -72.2246C140.005 -59.235 110.855 -54.991 117.464 -42.7571C109.125 -18.7022 105.431 -1.01284 92.795 -2.35974C66.3273 6.99915 81.5999 33.46 59.8076 16.9332C27.0835 10.22 21.6184 4.22841 17.0894 24.3167C1.18259 53.7726 25.7955 60.1222 14.2018 66.5724C-9.03825 83.7769 -15.0484 58.4083 -24.9978 64.2389C-43.2711 78.3783 -32.8603 90.8207 -38.8955 99.1905C-53.6861 117.647 -69.973 122.069 -69.973 122.069" stroke="white" stroke-width="5"/>
<path d="M160.82 -70.0322C144.233 -57.9075 113.553 -53.4407 120.509 -40.5647C113.512 -16.6548 109.624 1.96299 96.3249 0.545406C70.1149 9.12085 86.1891 36.9704 63.253 19.5762C30.113 11.3423 24.3611 5.03629 19.5945 26.1789C4.20742 56.0654 30.1121 62.7482 17.91 69.5369C-4.98268 86.2636 -11.3082 59.5636 -21.7798 65.7001C-39.8967 79.5194 -28.9394 92.6148 -35.2914 101.424C-49.7864 119.607 -66.9281 124.261 -66.9281 124.261" stroke="white" stroke-width="5"/>
<path d="M163.763 -67.914C148.319 -56.6249 116.161 -51.9429 123.452 -38.4465C117.751 -14.6766 113.676 4.83813 99.7363 3.35224C73.7754 11.1707 90.624 40.3621 66.5829 22.1298C33.041 12.4265 27.012 5.81672 22.0157 27.978C7.13089 58.2806 34.2836 65.2854 21.4936 72.4012C-1.06332 88.666 -7.69364 60.6796 -18.6698 67.1118C-36.6354 80.6218 -25.1502 94.3481 -31.8083 103.582C-46.0176 121.501 -63.9853 126.379 -63.9853 126.379" stroke="white" stroke-width="5"/>
<path d="M166.602 -65.8696C152.262 -55.3868 118.677 -50.4971 126.291 -36.4021C121.842 -12.7674 117.586 7.61307 103.028 6.06127C77.3073 13.1492 94.9032 43.6355 69.7957 24.5945C35.866 13.4732 29.5695 6.57019 24.3516 29.7145C9.9515 60.4186 38.3087 67.7341 24.9514 75.1656C2.71838 90.9848 -4.20604 61.757 -15.669 68.4745C-33.4887 81.686 -21.4941 96.0212 -28.4475 105.664C-42.3812 123.329 -61.1459 128.424 -61.1459 128.424" stroke="white" stroke-width="5"/>
<path d="M169.339 -63.8994C156.062 -54.1938 121.102 -49.1039 129.028 -34.4319C125.785 -10.9274 121.354 10.2873 106.2 8.672C80.7115 15.0559 99.0278 46.7902 72.8924 26.9697C38.589 14.4818 32.0348 7.29622 26.6032 31.388C12.6703 62.479 42.1883 70.094 28.2841 77.8297C6.3634 93.2195 -0.844479 62.7951 -12.7767 69.7877C-30.4558 82.7115 -17.9701 97.6335 -25.2082 107.671C-38.8762 125.091 -58.4091 130.394 -58.4091 130.394" stroke="white" stroke-width="5"/>
<path d="M171.973 -62.0031C159.719 -53.0454 123.436 -47.763 131.662 -32.5357C129.579 -9.1565 124.981 12.8611 109.254 11.1847C83.9876 16.891 102.997 49.8263 75.8726 29.2557C41.2095 15.4526 34.4072 7.99505 28.7701 32.9986C15.2867 64.4621 45.9219 72.3653 31.4915 80.3937C9.87125 95.3702 2.39056 63.7944 -9.99329 71.0516C-27.537 83.6985 -14.5788 99.1853 -22.0908 109.603C-35.5032 126.786 -55.7753 132.29 -55.7753 132.29" stroke="white" stroke-width="5"/>
<path d="M174.504 -60.1811C163.233 -51.9421 125.679 -46.4746 134.193 -30.7136C133.226 -7.45493 128.467 15.3343 112.188 13.599C87.1361 18.6543 106.812 52.7438 78.7367 31.4523C43.728 16.3853 36.6872 8.66643 30.8526 34.5462C17.8012 66.3676 49.51 74.5477 34.5739 82.8575C13.2424 97.4368 5.49959 64.7544 -7.31823 72.266C-24.7318 84.6468 -11.3195 100.676 -19.0948 111.459C-32.2615 128.415 -53.244 134.112 -53.244 134.112" stroke="white" stroke-width="5"/>
<path d="M176.932 -58.4331C166.604 -50.8836 127.83 -45.2384 136.621 -28.9656C136.723 -5.82245 131.81 17.7069 115.002 15.9154C90.156 20.346 110.471 55.5427 81.4838 33.5596C46.1434 17.2802 38.874 9.31061 32.8499 36.0309C20.2129 68.1957 52.9516 76.6415 37.5304 85.2211C16.4759 99.4194 8.48162 65.6756 -4.75252 73.4311C-22.0413 85.5567 -8.19342 102.107 -16.2212 113.24C-29.1523 129.978 -50.8163 135.86 -50.8163 135.86" stroke="white" stroke-width="5"/>
<path d="M179.257 -56.7592C169.833 -49.8701 129.891 -44.0548 138.946 -27.2918C140.073 -4.25928 135.011 19.9789 117.698 18.1334C93.0482 21.9658 113.975 58.2228 84.1148 35.5775C48.4569 18.137 40.9685 9.92735 34.7629 37.4526C22.5228 69.9461 56.2477 78.6464 40.362 87.4845C19.5728 101.318 11.3376 66.5575 -2.29521 74.5466C-19.4645 86.4278 -5.19943 103.477 -13.4691 114.945C-26.1745 131.475 -48.4911 137.534 -48.4911 137.534" stroke="white" stroke-width="5"/>
<path d="M181.479 -55.1591C172.918 -48.901 131.86 -42.9233 141.168 -25.6917C143.275 -2.76495 138.071 22.1507 120.274 20.2536C95.8124 23.5143 117.324 60.7847 86.6292 37.5065C50.6678 18.9563 42.9701 10.5171 36.591 38.8117C24.7303 71.6195 59.3978 80.563 43.0681 89.6481C22.5324 103.133 14.0671 67.4008 0.0532204 75.6132C-17.0019 87.2608 -2.33808 104.786 -10.8388 116.575C-23.3286 132.906 -46.2689 139.134 -46.2689 139.134" stroke="white" stroke-width="5"/>
<path d="M183.599 -53.633C175.861 -47.9768 133.738 -41.844 143.288 -24.1655C146.328 -1.33969 140.99 24.2221 122.731 22.2758C98.4489 24.9913 120.518 63.2282 89.0276 39.3463C52.7767 19.7377 44.8794 11.0797 38.3349 40.1081C26.836 73.2155 62.4025 82.3909 45.6492 91.7116C25.3554 104.864 16.6705 68.2051 2.29328 76.6305C-14.6529 88.0553 0.391159 106.035 -8.33005 118.13C-20.614 134.27 -44.1493 140.66 -44.1493 140.66" stroke="white" stroke-width="5"/>
<path d="M185.615 -52.1816C178.661 -47.098 135.525 -40.8177 145.304 -22.7141C149.233 0.0157473 143.767 26.1923 125.069 24.1991C100.957 26.3959 123.557 65.5523 91.3094 41.0961C54.7831 20.4806 46.6959 11.6144 39.994 41.3408C28.8392 74.7334 65.2611 84.1294 48.105 93.6743C28.0412 106.51 19.1475 68.9697 4.42446 77.5978C-12.4181 88.8106 2.98778 107.223 -5.94316 119.608C-18.0314 135.568 -42.1327 142.112 -42.1327 142.112" stroke="white" stroke-width="5"/>
<path d="M187.529 -50.8039C181.318 -46.2637 137.221 -39.8435 147.218 -21.3364C151.99 1.30236 146.402 28.0623 127.287 26.0247C103.338 27.7291 126.441 67.7582 93.4747 42.757C56.687 21.1859 48.4196 12.122 41.5683 42.511C30.7402 76.1741 67.9737 85.7796 50.4353 95.5372C30.5898 108.072 21.4979 69.6957 6.44677 78.516C-10.2974 89.5276 5.45177 108.35 -3.67821 121.012C-15.5807 136.8 -40.2191 143.49 -40.2191 143.49" stroke="white" stroke-width="5"/>
<path d="M189.34 -49.5002C183.832 -45.4742 138.825 -38.9215 149.029 -20.0327C154.599 2.51989 148.896 29.8318 129.386 27.7522C105.59 28.9908 129.171 69.8456 95.5238 44.3287C58.4889 21.8533 50.0509 12.6025 43.0583 43.6183C32.5393 77.5375 70.5409 87.3411 52.6407 97.3C33.0018 109.551 23.7223 70.3827 8.36069 79.385C-8.29047 90.2063 7.78362 109.417 -1.53469 122.34C-13.2615 137.966 -38.4081 144.793 -38.4081 144.793" stroke="white" stroke-width="5"/>
<path d="M191.047 -48.2707C186.203 -44.7297 140.338 -38.0521 150.736 -18.8032C157.059 3.6681 151.247 31.5006 131.366 29.3814C107.714 30.1807 131.744 71.8143 97.456 45.8109C60.1878 22.4827 51.5889 13.0556 44.4631 44.6626C34.2355 78.8233 72.9616 88.8138 54.7201 98.9625C35.2761 110.946 25.8197 71.0306 10.1652 80.2044C-6.39814 90.8462 9.98238 110.423 0.486428 123.592C-11.0746 139.065 -36.7006 146.023 -36.7006 146.023" stroke="white" stroke-width="5"/>
<path d="M192.652 -47.1152C188.432 -44.03 141.761 -37.235 152.341 -17.6477C159.372 4.74723 153.457 33.0691 133.226 30.9126C109.711 31.2989 134.163 73.6645 99.272 47.2039C61.7847 23.0743 53.0346 13.4814 45.7835 45.6441C35.8299 80.0318 75.2367 90.1979 56.6746 100.525C37.4137 112.256 27.7911 71.6395 11.8614 80.9746C-4.61947 91.4476 12.049 111.369 2.38612 124.769C-9.01909 140.098 -35.0956 147.178 -35.0956 147.178" stroke="white" stroke-width="5"/>
<path d="M194.155 -46.0337C190.518 -43.375 143.092 -36.4701 153.844 -16.5662C161.536 5.75728 155.526 34.537 134.968 32.3457C111.579 32.3456 136.427 75.3961 100.972 48.5077C63.2795 23.628 54.388 13.8801 47.0196 46.5628C37.3225 81.1628 77.3664 91.4933 58.5042 101.987C39.4146 113.483 29.6364 72.2095 13.4492 81.6955C-2.95448 92.0107 13.9835 112.254 4.16438 125.871C-7.09503 141.065 -33.5932 148.26 -33.5932 148.26" stroke="white" stroke-width="5"/>
<path d="M195.554 -45.0263C192.46 -42.765 144.332 -35.7578 155.243 -15.5589C163.551 6.69801 157.452 35.9043 136.59 33.6805C113.32 33.3204 138.536 77.009 102.555 49.7221C64.6714 24.1437 55.6481 14.2513 48.1705 47.4184C38.7122 82.2163 79.3496 92.6999 60.2078 103.349C41.2779 114.625 31.3548 72.7402 14.9276 82.3669C-1.40415 92.535 15.7849 113.078 5.82022 126.897C-5.30338 141.966 -32.1942 149.267 -32.1942 149.267" stroke="white" stroke-width="5"/>
<path d="M196.85 -44.0932C194.26 -42.2 145.48 -35.098 156.539 -14.6257C165.419 7.56942 159.237 37.1709 138.093 34.917C114.932 34.2235 140.489 78.5032 104.022 50.8471C65.9612 24.6213 56.8158 14.595 49.2371 48.2109C40 83.1921 81.1873 93.8175 61.7865 104.611C43.0045 115.684 32.9471 73.2319 16.2977 82.9888C0.0325159 93.0206 17.4541 113.842 7.35465 127.848C-3.64313 142.8 -30.8979 150.2 -30.8979 150.2" stroke="white" stroke-width="5"/>
<path d="M198.044 -43.2341C195.918 -41.6798 146.538 -34.4905 157.733 -13.7666C167.139 8.37175 160.881 38.3371 139.477 36.0555C116.417 35.0549 142.288 79.8788 105.373 51.8828C67.149 25.0611 57.8912 14.9116 50.2193 48.9406C41.186 84.0906 82.8795 94.8466 63.2402 105.773C44.5944 116.658 34.4134 73.6845 17.5594 83.5614C1.35552 93.4677 18.9912 114.545 8.76763 128.723C-2.11431 143.568 -29.704 151.059 -29.704 151.059" stroke="white" stroke-width="5"/>
<path d="M199.134 -42.4489C197.432 -41.2043 147.504 -33.9353 158.823 -12.9815C168.71 9.10501 162.383 39.4028 140.741 37.0959C117.773 35.8147 143.932 81.136 106.606 52.8294C68.2338 25.4631 58.8733 15.2009 51.1163 49.6075C42.2691 84.9117 84.4252 95.7871 64.5681 106.835C46.0466 117.549 35.7527 74.0983 18.7117 84.0847C2.56386 93.8764 20.3952 115.187 10.0582 129.523C-0.717874 144.27 -28.6137 151.845 -28.6137 151.845" stroke="white" stroke-width="5"/>
<path d="M200.122 -41.7378C198.803 -40.7736 148.38 -33.4323 159.811 -12.2703C170.133 9.76918 163.743 40.3681 141.886 38.0382C119.002 36.503 145.42 82.2746 107.724 53.6867C69.2166 25.8272 59.7631 15.4631 51.929 50.2116C43.2504 85.6554 85.8255 96.6389 65.7709 107.796C47.3622 118.355 36.966 74.4731 19.7556 84.5587C3.65854 94.2466 21.6671 115.769 11.2274 130.247C0.547158 144.906 -27.6259 152.556 -27.6259 152.556" stroke="white" stroke-width="5"/>
<path d="M201.007 -41.1005C200.032 -40.3877 149.164 -32.9817 160.696 -11.6331C171.407 10.3643 164.961 41.2329 142.911 38.8825C120.102 37.1196 146.754 83.2948 108.725 54.4549C70.0969 26.1535 60.5601 15.698 52.6569 50.7529C44.1293 86.3218 87.0797 97.4021 66.8484 108.658C48.5406 119.078 38.0527 74.809 20.6906 84.9835C4.63905 94.5784 22.8064 116.291 12.2746 130.896C1.68027 145.476 -26.7411 153.193 -26.7411 153.193" stroke="white" stroke-width="5"/>
<path d="M201.789 -40.5378C201.117 -40.047 149.856 -32.5838 161.477 -11.0703C172.534 10.8898 166.038 41.9968 143.818 39.6282C121.075 37.6642 147.932 84.196 109.61 55.1333C70.8747 26.4415 61.2642 15.9053 53.3 51.2308C44.9059 86.9103 88.1879 98.0762 67.8004 109.419C49.5818 119.716 39.0129 75.1054 21.5168 85.3585C5.5054 94.8712 23.813 116.751 13.1999 131.47C2.68147 145.979 -25.9594 153.756 -25.9594 153.756" stroke="white" stroke-width="5"/>
<path d="M202.468 -40.0488C202.06 -39.7508 150.458 -32.2379 162.157 -10.5813C173.512 11.3465 166.973 42.6605 144.605 40.2762C121.92 38.1375 148.955 84.9789 110.378 55.7228C71.5505 26.6919 61.876 16.0856 53.8588 51.6462C45.5806 87.4217 89.1507 98.6619 68.6275 110.08C50.4864 120.271 39.8471 75.3632 22.2346 85.6845C6.25808 95.1258 24.6875 117.151 14.0038 131.968C3.55126 146.417 -25.2802 154.245 -25.2802 154.245" stroke="white" stroke-width="5"/>
<path d="M203.043 -39.6342C202.86 -39.4998 150.968 -31.9448 162.732 -10.1668C174.342 11.7336 167.766 43.2232 145.272 40.8256C122.636 38.5387 149.823 85.6428 111.03 56.2226C72.1232 26.904 62.3945 16.2382 54.3324 51.9983C46.1525 87.8553 89.9669 99.1584 69.3286 110.641C51.2532 120.741 40.5544 75.5815 22.843 85.9608C6.89611 95.3415 25.4289 117.491 14.6853 132.39C4.28867 146.787 -24.7045 154.659 -24.7045 154.659" stroke="white" stroke-width="5"/>
<path d="M103 -111L63.1753 -81.8804L29.6753 -55.3804L-1.32472 -31.3804L-25.8247 -9.38036L-51.3247 11.6196L-80.8247 37.6196L-101.824 57.6199L-122 81" stroke="black" stroke-width="0.25"/>
<path d="M205.517 -37.1753C205.517 -37.1753 154.017 -29.6753 165.692 -8.05565C177.368 13.564 170.841 44.8245 148.517 42.4442C126.194 40.064 153.176 86.8254 114.675 57.6193C76.1742 28.4132 66.5188 17.825 58.5174 53.3249C50.5161 88.8248 94.0002 100.046 73.5174 111.444C55.7135 121.352 45.0953 76.5212 27.5174 86.8249C11.787 96.0457 30.1801 118.034 19.5174 132.825C9.29166 147.01 -19.4829 154.825 -19.4829 154.825" stroke="black" stroke-width="0.25"/>
<path d="M107.533 -107.736C69.4695 -79.9039 67.1922 -79.5722 67.7085 -78.6162C36.2061 -52.332 35.9175 -50.9497 34.9304 -51.0549C4.31404 -28.2215 5.5072 -26.1537 3.80469 -27.4452C-21.3144 -7.70948 -21.7414 -8.17769 -22.0952 -6.6079C-46.8214 15.0333 -44.8986 15.5295 -45.8043 16.0335C-74.7871 41.3219 -75.2566 39.3395 -76.0339 39.7951C-96.8 59.3187 -95.9866 60.291 -96.4581 60.9451C-116.194 83.9186 -117.467 84.2642 -117.467 84.2642" stroke="black" stroke-width="0.25"/>
<path d="M111.965 -104.544C75.6227 -77.971 71.1191 -77.3151 72.1401 -75.4246C42.5906 -49.3513 42.0199 -46.6177 40.0677 -46.8258C9.82644 -25.1327 12.186 -21.0435 8.81917 -23.5975C-16.9052 -6.0754 -17.7495 -7.00131 -18.4492 -3.89692C-42.419 18.3711 -38.6164 19.3523 -40.4076 20.3491C-68.8848 44.9419 -69.8133 41.0215 -71.3505 41.9225C-91.8888 60.9801 -90.2803 62.9029 -91.2127 64.1964C-110.519 86.7724 -113.035 87.4558 -113.035 87.4558" stroke="black" stroke-width="0.25"/>
<path d="M116.295 -101.426C81.6349 -76.0828 74.9561 -75.1101 76.4702 -72.3064C48.8287 -46.4393 47.9824 -42.3853 45.0873 -42.694C15.2125 -22.1151 18.7117 -16.0509 13.7187 -19.8384C-12.597 -4.47907 -13.8491 -5.8522 -14.8868 -1.24841C-38.1175 21.632 -32.4783 23.0872 -35.1346 24.5654C-63.1178 48.4785 -64.4948 42.6646 -66.7744 44.0009C-87.0901 62.6032 -84.7048 65.4547 -86.0876 67.3729C-104.973 89.5605 -108.705 90.574 -108.705 90.574" stroke="black" stroke-width="0.25"/>
<path d="M120.523 -98.3811C87.506 -74.2389 78.7031 -72.9569 80.6987 -69.2615C54.9205 -43.5957 53.805 -38.2523 49.9892 -38.6592C20.4722 -19.1683 25.0843 -11.1754 18.5033 -16.1676C-8.38986 -2.92026 -10.0402 -4.73011 -11.4079 1.33789C-33.9169 24.8164 -26.4841 26.7344 -29.9853 28.6827C-57.486 51.9321 -59.301 44.2691 -62.3056 46.0303C-82.404 64.1881 -79.2601 67.9465 -81.0827 70.4747C-99.5581 92.2831 -104.477 93.6189 -104.477 93.6189" stroke="black" stroke-width="0.25"/>
<path d="M124.65 -95.4094C93.2355 -72.4394 82.3595 -70.8555 84.8252 -66.2898C60.8655 -40.8204 59.4872 -34.2187 54.7728 -34.7214C25.6051 -16.2925 31.3033 -6.41723 23.1725 -12.5851C-4.28425 -1.39897 -6.32331 -3.63503 -8.01307 3.86197C-29.8176 27.9241 -20.6345 30.2938 -24.9601 32.701C-51.9901 55.3026 -54.2325 45.835 -57.9446 48.011C-77.831 65.7348 -73.9467 70.3783 -76.1985 73.502C-94.2734 94.9402 -100.35 96.5906 -100.35 96.5906" stroke="black" stroke-width="0.25"/>
<path d="M128.675 -92.511C98.824 -70.6843 85.9261 -68.8059 88.8501 -63.3914C66.6641 -38.1136 65.0296 -30.2846 59.4386 -30.8807C30.6116 -13.4875 37.3692 -1.7763 27.7268 -9.09084C-0.279698 0.0847959 -2.69785 -2.56697 -4.70176 6.32383C-25.8193 30.9553 -14.9289 33.7655 -20.0587 36.6203C-46.6294 58.5901 -49.2887 47.3623 -53.691 49.9428C-73.3706 67.2434 -68.7641 72.7502 -71.4345 76.4546C-89.1187 97.5319 -96.3252 99.489 -96.3252 99.489" stroke="black" stroke-width="0.25"/>
<path d="M132.599 -89.6855C104.272 -68.9732 89.4031 -66.8079 92.7739 -60.5659C72.3168 -35.475 70.4325 -26.4495 63.9872 -27.1367C35.4922 -10.7531 43.2825 2.74765 32.1666 -5.68464C3.6243 1.5313 0.83663 -1.5257 -1.4735 8.72372C-21.9214 33.9101 -9.36675 37.1498 -15.2805 40.4407C-41.4036 61.7947 -44.4693 48.8512 -49.5443 51.826C-69.0222 68.7141 -63.7118 75.0624 -66.7903 79.3329C-84.0937 100.058 -92.4014 102.314 -92.4014 102.314" stroke="black" stroke-width="0.25"/>
<path d="M136.42 -86.9333C109.578 -67.3066 92.7896 -64.8616 96.5957 -57.8137C77.8227 -32.9047 75.6951 -22.7139 68.4176 -23.4898C40.246 -8.08969 49.0422 7.15434 36.491 -2.36673C7.42676 2.94028 4.27914 -0.511441 1.67072 11.0614C-18.1248 36.7883 -3.94912 40.4463 -10.6264 44.1622C-36.3135 64.9162 -39.775 50.3015 -45.5054 53.6604C-64.7868 70.1466 -58.7907 77.3147 -62.2667 82.1365C-79.1992 102.519 -88.5796 105.067 -88.5796 105.067" stroke="black" stroke-width="0.25"/>
<path d="M140.14 -84.2544C114.743 -65.6843 96.0856 -62.9672 100.315 -55.1348C83.1817 -30.4028 80.8173 -19.0777 72.7297 -19.94C44.873 -5.49712 54.6483 11.4438 40.7 0.862893C11.1277 4.31174 7.62969 0.475795 4.73092 13.3368C-14.4296 39.5899 1.324 43.6551 -6.09656 47.7846C-31.3593 67.9547 -35.2061 51.7131 -41.5743 55.446C-60.6645 71.541 -54.001 79.507 -57.8639 84.8656C-74.4353 104.914 -84.8599 107.746 -84.8599 107.746" stroke="black" stroke-width="0.25"/>
<path d="M143.759 -81.6487C119.768 -64.1065 99.2922 -61.1246 103.934 -52.529C88.3949 -27.9694 85.8001 -15.5408 76.9246 -16.4871C49.3741 -2.97542 60.1018 15.616 44.7946 4.00423C14.728 5.64568 10.8893 1.43602 7.70806 15.5501C-10.8348 42.315 6.45362 46.7762 -1.68992 51.3081C-26.5398 70.9102 -30.7614 53.0862 -37.75 57.1827C-56.6543 72.8973 -49.3416 81.6393 -53.5808 87.52C-69.801 107.244 -81.2412 110.351 -81.2412 110.351" stroke="black" stroke-width="0.25"/>
<path d="M147.276 -79.1162C124.651 -62.5729 102.409 -59.3338 107.451 -49.9966C93.4617 -25.6043 90.6431 -12.1034 81.0017 -13.1314C53.7489 -0.524601 65.4022 19.671 48.7742 7.05727C18.2274 6.9421 14.0573 2.36921 10.6017 17.7011C-7.34093 44.9634 11.4392 49.8095 2.59304 54.7325C-21.8556 73.7825 -26.4414 54.4206 -34.0331 58.8706C-52.7567 74.2154 -44.8129 83.7117 -49.418 90.0998C-65.2968 109.509 -77.7241 112.884 -77.7241 112.884" stroke="black" stroke-width="0.25"/>
<path d="M150.691 -76.6567C129.393 -61.0835 105.435 -57.5945 110.866 -47.5371C98.3817 -23.3075 95.3456 -8.76509 84.9606 -9.87237C57.9968 1.85557 70.549 23.6089 52.6384 10.0223C21.6251 8.20125 17.1335 3.27563 13.4112 19.7901C-3.94842 47.5355 16.2804 52.7554 6.75181 58.0581C-17.3072 76.5721 -22.2468 55.7167 -30.424 60.51C-48.9721 75.4956 -40.4156 85.7244 -45.3759 92.6053C-60.9232 111.708 -74.3091 115.343 -74.3091 115.343" stroke="black" stroke-width="0.25"/>
<path d="M154.004 -74.2705C133.993 -59.6385 108.371 -55.9071 114.18 -45.1509C103.155 -21.079 99.9083 -5.5262 88.8018 -6.71041C62.1184 4.16486 75.5427 27.4296 56.3876 12.899C24.9219 9.42289 20.1181 4.15503 16.1373 21.817C-0.656801 50.031 20.9775 55.6136 10.7869 61.2847C-12.8941 79.2785 -18.1769 56.9741 -26.9222 62.1004C-45.3 76.7377 -36.149 87.6772 -41.454 95.0361C-56.6796 113.842 -70.9956 117.73 -70.9956 117.73" stroke="black" stroke-width="0.25"/>
<path d="M157.216 -71.9578C138.453 -58.2381 111.217 -54.2717 117.392 -42.8381C107.783 -18.9191 104.331 -2.38695 92.5252 -3.64574C66.1136 6.40303 80.3833 31.1329 60.022 15.6872C28.1175 10.6068 23.0113 5.00717 18.7797 23.7813C2.53393 52.4496 25.5306 58.3838 14.6983 64.412C-8.61627 81.9017 -14.2317 58.1927 -23.5278 63.6418C-41.7405 77.9414 -32.0133 89.5698 -37.6523 97.3921C-52.5662 115.909 -67.7837 120.042 -67.7837 120.042" stroke="black" stroke-width="0.25"/>
<path d="M160.327 -69.7178C142.772 -56.8816 113.973 -52.6876 120.502 -40.5981C112.264 -16.8272 108.614 0.653387 96.1308 -0.677615C69.9825 8.5708 85.0708 34.7193 63.5414 18.3876C31.2122 11.7536 25.813 5.83277 21.3387 25.684C5.62375 54.7922 29.9397 61.0668 18.4859 67.4408C-4.47376 84.4423 -10.4114 59.3731 -20.2407 65.1349C-38.2936 79.1074 -28.0083 91.4029 -33.9708 99.674C-48.5829 117.912 -64.6733 122.282 -64.6733 122.282" stroke="black" stroke-width="0.25"/>
<path d="M163.335 -67.5513C146.949 -55.5697 116.639 -51.1556 123.51 -38.4316C116.598 -14.8039 112.757 3.59409 99.6182 2.19323C73.7245 10.6675 89.6047 38.1883 66.9454 20.9994C34.2053 12.8627 28.5227 6.63111 23.8136 27.5242C8.61221 57.0579 34.2043 63.6618 22.1494 70.3704C-0.467012 86.8996 -6.71624 60.5147 -17.0615 66.5789C-34.9597 80.235 -24.1347 93.1758 -30.4101 101.881C-44.7301 119.849 -61.665 124.449 -61.665 124.449" stroke="black" stroke-width="0.25"/>
<path d="M166.242 -65.458C150.985 -54.3021 119.215 -49.6754 126.417 -36.3384C120.786 -12.849 116.76 6.43539 102.988 4.96704C77.3407 12.6932 93.986 41.54 70.2349 23.523C37.0978 13.9342 31.1415 7.40243 26.2055 29.3021C11.5003 59.247 38.3254 66.1691 25.6897 73.2009C3.40493 89.2738 -3.1454 61.6177 -13.9891 67.974C-31.7379 81.3245 -20.3913 94.8888 -26.9691 104.013C-41.0069 121.721 -58.7578 126.542 -58.7578 126.542" stroke="black" stroke-width="0.25"/>
<path d="M169.047 -63.4377C154.88 -53.0787 121.701 -48.2467 129.223 -34.3181C124.827 -10.9623 120.623 9.17753 106.24 7.64405C80.83 14.6483 98.2136 44.7748 73.409 25.9585C39.8888 14.9685 33.6682 8.14696 28.5133 31.0181C14.2869 61.3598 42.302 68.5889 29.1058 75.9327C7.14108 91.5652 0.300198 62.6823 -11.0245 69.3206C-28.6292 82.3761 -16.7793 96.5421 -23.6488 106.071C-37.4144 123.528 -55.9526 128.562 -55.9526 128.562" stroke="black" stroke-width="0.25"/>
<path d="M171.751 -61.4907C158.634 -51.8997 124.097 -46.8699 131.927 -32.3711C128.723 -9.14401 124.346 11.8203 109.375 10.224C84.1935 16.5326 102.289 47.8923 76.4687 28.3057C42.5792 15.9653 36.104 8.86449 30.738 32.6719C16.9732 63.3959 46.135 70.9211 32.3987 78.5654C10.7424 93.7735 3.62151 63.7083 -8.16677 70.6183C-25.6325 83.3895 -13.2975 98.1354 -20.4482 108.055C-33.9514 125.268 -53.2485 130.509 -53.2485 130.509" stroke="black" stroke-width="0.25"/>
<path d="M174.354 -59.6169C162.247 -50.765 126.403 -45.5449 134.529 -30.4973C132.471 -7.3941 127.929 14.3636 112.391 12.707C87.4301 18.346 106.21 50.8925 79.413 30.5647C45.1681 16.9245 38.4478 9.55499 32.8788 34.2634C19.5581 65.3555 49.8236 73.1654 35.5674 81.0991C14.208 95.8988 6.81756 64.6957 -5.41688 71.8672C-22.7489 84.3648 -9.94701 99.6688 -17.3684 109.964C-30.619 126.944 -50.6465 132.383 -50.6465 132.383" stroke="black" stroke-width="0.25"/>
<path d="M176.854 -57.8164C165.719 -49.6747 128.618 -44.2716 137.029 -28.6968C136.074 -5.7126 131.372 16.8076 115.29 15.0929C90.5404 20.0884 109.979 53.7755 82.2423 32.7353C47.656 17.8463 40.7002 10.2185 34.936 35.7927C22.0421 67.2385 53.3682 75.3221 38.6124 83.5338C17.5383 97.941 9.88885 65.6444 -2.77431 73.0673C-19.9778 85.302 -6.72733 101.142 -14.4088 111.798C-27.4167 128.554 -48.146 134.184 -48.146 134.184" stroke="black" stroke-width="0.25"/>
<path d="M179.252 -56.0889C169.049 -48.6285 130.744 -43.05 139.428 -26.9692C139.529 -4.09926 134.675 19.1524 118.07 17.382C93.5238 21.7603 113.593 56.5415 84.9562 34.818C50.0423 18.7307 42.8606 10.8552 36.9091 37.2601C24.4247 69.0451 56.7683 77.3913 41.5332 85.8697C20.7327 99.9003 12.8349 66.5548 -0.239568 74.2188C-17.3198 86.2012 -3.63894 102.556 -11.5699 113.558C-24.3449 130.099 -45.7476 135.911 -45.7476 135.911" stroke="black" stroke-width="0.25"/>
<path d="M181.55 -54.4348C172.239 -47.627 132.779 -41.8804 141.725 -25.3152C142.839 -2.55456 137.838 21.3976 120.734 19.5738C96.3814 23.361 117.056 59.19 87.5557 36.812C52.328 19.5774 44.93 11.4646 38.7993 38.665C26.7069 70.7749 60.0249 79.3725 44.3308 88.1063C23.7924 101.776 15.6567 67.4263 2.18832 75.3211C-14.7738 87.0621 -0.68086 103.91 -8.85071 115.243C-21.4028 131.577 -43.4502 137.565 -43.4502 137.565" stroke="black" stroke-width="0.25"/>
<path d="M183.745 -52.8538C175.287 -46.6695 134.725 -40.7623 143.92 -23.7341C146.002 -1.07802 140.861 23.5436 123.278 21.6688C99.1121 24.8911 120.364 61.7215 90.0398 38.7181C54.5122 20.3868 46.9074 12.0473 40.6053 40.0079C28.8877 72.4284 63.1369 81.2663 47.0042 90.2442C26.7163 103.57 18.3531 68.2595 4.50837 76.375C-12.341 87.885 2.14592 105.203 -6.25228 116.853C-18.5913 132.991 -41.2549 139.146 -41.2549 139.146" stroke="black" stroke-width="0.25"/>
<path d="M185.839 -51.3457C178.195 -45.7562 136.58 -39.6958 146.014 -22.2261C149.018 0.330356 143.744 25.5904 125.706 23.6671C101.716 26.3505 123.52 64.1361 92.4089 40.5361C56.5954 21.159 48.7934 12.6032 42.3279 41.2889C30.9676 74.0055 66.105 83.0726 49.5539 92.2833C29.5049 105.28 20.9249 69.0542 6.72109 77.3802C-10.0206 88.6701 4.84193 106.438 -3.77405 118.39C-15.9098 134.34 -39.1611 140.654 -39.1611 140.654" stroke="black" stroke-width="0.25"/>
<path d="M187.831 -49.9114C180.961 -44.8878 138.345 -38.6816 148.006 -20.7917C151.888 1.66984 146.488 27.5374 128.015 25.5678C104.195 27.7386 126.522 66.4328 94.6631 42.2653C58.5775 21.8931 50.5879 13.1315 43.9669 42.5071C32.9467 75.5055 68.9291 84.7906 51.98 94.2229C32.1583 106.907 23.3719 69.8099 8.82649 78.3361C-7.81286 89.4165 7.40714 107.611 -1.41605 119.851C-13.3585 135.622 -37.1689 142.089 -37.1689 142.089" stroke="black" stroke-width="0.25"/>
<path d="M189.722 -48.5498C183.586 -44.0632 140.021 -37.7187 149.897 -19.4302C154.612 2.94141 149.091 29.3854 130.207 27.3719C106.546 29.0563 129.371 68.6128 96.8024 43.9067C60.4586 22.5902 52.2909 13.6334 45.5223 43.6636C34.8249 76.9294 71.6091 86.4215 54.2823 96.0639C34.6763 108.451 25.6941 70.5275 10.8245 79.2436C-5.71765 90.1253 9.84153 108.726 0.821715 121.238C-10.9372 136.84 -35.2783 143.45 -35.2783 143.45" stroke="black" stroke-width="0.25"/>
<path d="M191.511 -47.2615C186.07 -43.283 141.606 -36.8077 151.686 -18.1418C157.189 4.14458 151.555 31.1341 132.281 29.0791C108.772 30.303 132.067 70.6756 98.8267 45.4598C62.2386 23.2498 53.9024 14.1082 46.9942 44.7579C36.6021 78.2767 74.1452 87.9646 56.4609 97.8059C37.059 109.912 27.8915 71.2064 12.7152 80.1024C-3.73501 90.7959 12.1451 109.78 2.93925 122.55C-8.64602 137.992 -33.4893 144.739 -33.4893 144.739" stroke="black" stroke-width="0.25"/>
<path d="M193.198 -46.0466C188.412 -42.5474 143.101 -35.9487 153.373 -16.927C159.62 5.2791 153.878 32.7831 134.236 30.6889C110.87 31.4787 134.61 72.6209 100.736 46.9244C63.9171 23.8716 55.422 14.5558 48.3821 45.7898C38.278 79.5472 76.5368 89.4198 58.5154 99.4487C39.306 111.29 29.9637 71.8464 14.4981 80.912C-1.86542 91.4281 14.3175 110.774 4.93608 123.788C-6.48542 139.078 -31.8022 145.953 -31.8022 145.953" stroke="black" stroke-width="0.25"/>
<path d="M194.784 -44.9048C190.614 -41.856 144.506 -35.1412 154.959 -15.7851C161.904 6.34546 156.061 34.333 136.075 32.202C112.843 32.5837 137 74.4492 102.53 48.301C65.495 24.4562 56.8506 14.9766 49.6869 46.7596C39.8535 80.7413 78.7848 90.7874 60.4466 100.993C41.4181 112.585 31.9116 72.4481 16.1742 81.6731C-0.10789 92.0225 16.3595 111.708 6.81317 124.951C-4.45443 140.099 -30.2163 147.095 -30.2163 147.095" stroke="black" stroke-width="0.25"/>
<path d="M196.268 -43.8359C192.674 -41.2086 145.821 -34.3853 156.443 -14.7163C164.042 7.34366 158.105 35.7837 137.795 33.6182C114.688 33.6181 139.236 76.1605 104.209 49.5895C66.9714 25.0035 58.1872 15.3706 50.9077 47.6675C41.3276 81.8591 80.8884 92.0677 62.2537 102.438C43.3945 113.798 33.7343 73.0114 17.7424 82.3855C1.53658 92.5789 18.2702 112.583 8.56955 126.04C-2.55401 141.054 -28.7324 148.164 -28.7324 148.164" stroke="black" stroke-width="0.25"/>
<path d="M197.65 -42.8406C194.594 -40.6059 147.046 -33.6815 157.825 -13.7209C166.034 8.27322 160.008 37.1348 139.398 34.9372C116.408 34.5814 141.32 77.7543 105.773 50.7895C68.3467 25.513 59.4323 15.7373 52.045 48.5129C42.7008 82.9001 82.8479 93.2599 63.937 103.784C45.2355 114.927 35.4321 73.5359 19.2032 83.0489C3.06848 93.097 20.0501 113.398 10.2057 127.054C-0.783698 141.944 -27.3501 149.159 -27.3501 149.159" stroke="black" stroke-width="0.25"/>
<path d="M198.931 -41.9185C196.372 -40.0476 148.181 -33.0294 159.106 -12.7988C167.879 9.13437 161.772 38.3864 140.882 36.1591C118.001 35.4738 143.25 79.2308 107.222 51.9012C69.621 25.985 60.586 16.077 53.0987 49.2961C43.9731 83.8644 84.6634 94.3644 65.4967 105.031C46.9413 115.973 37.0053 74.0217 20.5568 83.6635C4.48783 93.5768 21.6992 114.152 11.7216 127.993C0.856539 142.769 -26.0693 150.082 -26.0693 150.082" stroke="black" stroke-width="0.25"/>
<path d="M200.11 -41.0693C198.009 -39.5334 149.226 -32.429 160.285 -11.9497C169.578 9.92736 163.395 39.539 142.249 37.2843C119.468 36.2955 145.027 80.5904 108.557 52.9248C70.7943 26.4197 61.6482 16.39 54.0689 50.0174C45.1445 84.7524 86.335 95.3815 66.9326 106.179C48.5118 116.936 38.4536 74.4692 21.803 84.2294C5.79463 94.0188 23.2176 114.847 13.1173 128.858C2.36667 143.528 -24.8901 150.931 -24.8901 150.931" stroke="black" stroke-width="0.25"/>
<path d="M201.187 -40.2935C199.505 -39.0635 150.18 -31.8803 161.362 -11.1738C171.13 10.6519 164.879 40.5921 143.498 38.3124C120.808 37.0464 146.65 81.8327 109.776 53.8602C71.866 26.8169 62.6184 16.6759 54.955 50.6764C46.2145 85.5638 87.862 96.3108 68.2444 107.228C49.9465 117.816 39.7767 74.8781 22.9413 84.7466C6.98837 94.4227 24.6046 115.482 14.3923 129.648C3.74623 144.222 -23.813 151.707 -23.813 151.707" stroke="black" stroke-width="0.25"/>
<path d="M202.163 -39.5908C200.86 -38.6381 151.045 -31.3834 162.338 -10.4712C172.536 11.3081 166.223 41.5458 144.629 39.2435C122.022 37.7264 148.121 82.9577 110.88 54.7073C72.8371 27.1766 63.4977 16.9348 55.7581 51.2732C47.1842 86.2986 89.2455 97.1524 69.433 108.178C51.2464 118.613 40.9756 75.2483 23.9728 85.2149C8.07004 94.7884 25.8613 116.057 15.5475 130.364C4.9962 144.85 -22.8369 152.409 -22.8369 152.409" stroke="black" stroke-width="0.25"/>
<path d="M203.037 -38.9612C202.074 -38.2567 151.82 -30.9381 163.212 -9.84153C173.795 11.8962 167.426 42.4004 145.643 40.0777C123.109 38.3357 149.439 83.9658 111.869 55.4663C73.7067 27.499 64.2849 17.167 56.4771 51.808C48.0524 86.9571 90.4846 97.9066 70.4974 109.029C52.4105 119.327 42.0491 75.5801 24.8965 85.6346C9.03865 95.1162 26.9868 116.572 16.5821 131.006C6.11557 145.413 -21.9629 153.039 -21.9629 153.039" stroke="black" stroke-width="0.25"/>
<path d="M203.81 -38.405C203.146 -37.92 152.504 -30.5449 163.985 -9.28538C174.908 12.4155 168.49 43.1553 146.538 40.8147C124.07 38.8739 150.603 84.8564 112.743 56.1368C74.4753 27.7837 64.9807 17.3718 57.1126 52.2804C48.8198 87.5387 91.5796 98.5727 71.4381 109.782C53.4393 119.958 42.9979 75.8731 25.7129 86.0052C9.8947 95.4056 27.9814 117.027 17.4964 131.572C7.10484 145.91 -21.1904 153.595 -21.1904 153.595" stroke="black" stroke-width="0.25"/>
<path d="M204.48 -37.9216C204.078 -37.6271 153.099 -30.203 164.656 -8.80198C175.874 12.867 169.414 43.8113 147.316 41.4552C124.904 39.3417 151.614 85.6302 113.502 56.7195C75.1428 28.0313 65.5851 17.5502 57.6646 52.691C49.4863 88.0442 92.5306 99.1517 72.255 110.435C54.3328 120.506 43.822 76.128 26.4219 86.3275C10.6382 95.6574 28.8453 117.423 18.2904 132.065C7.96404 146.343 -20.5195 154.078 -20.5195 154.078" stroke="black" stroke-width="0.25"/>
<path d="M205.049 -37.512C204.868 -37.3792 153.603 -29.9133 165.225 -8.39232C176.694 13.2496 170.197 44.3675 147.975 41.9981C125.612 39.7382 152.471 86.2863 114.146 57.2134C75.7087 28.2409 66.0974 17.701 58.1325 53.0389C50.0514 88.4727 93.3371 99.6424 72.9478 110.989C55.0906 120.97 44.5208 76.3438 27.0231 86.6005C11.2686 95.8705 29.5779 117.758 18.9638 132.482C8.69265 146.709 -19.9507 154.488 -19.9507 154.488" stroke="black" stroke-width="0.25"/>
<path d="M215.716 628.554C215.716 628.554 254.528 609.316 276.965 594.215C294.868 582.166 303.412 573.94 320.155 560.765C339.477 545.56 348.077 534.849 369.207 521.451C399.96 501.951 421.017 495.28 456.882 483.249C487.03 473.135 504.422 467.7 536.469 462.761C575.978 456.672 639.588 459.365 639.588 459.365" stroke="black" stroke-width="0.25"/>
<path d="M92.2026 493.159C92.2026 493.159 104.108 447.274 126.545 432.173C144.448 420.124 179.899 438.545 196.642 425.369C215.964 410.164 259.428 437.97 280.558 424.572C311.311 405.072 191.229 364.828 269.557 352.257C301.555 347.121 378.737 394.425 410.783 389.486C495.943 376.361 516.075 323.97 516.075 323.97" stroke="black" stroke-width="0.25"/>
<path d="M209.764 622.03C209.764 622.03 247.28 601.507 269.717 586.407C287.62 574.358 297.46 567.416 314.204 554.24C333.526 539.036 343.805 530.181 364.936 516.782C395.688 497.283 409.945 488.994 447.855 476.937C478.093 467.063 498.366 464.169 530.412 459.23C572.122 452.802 633.636 452.841 633.636 452.841" stroke="black" stroke-width="0.25"/>
<path d="M203.96 615.667C203.96 615.667 240.211 593.892 262.648 578.791C280.551 566.742 291.656 561.053 308.4 547.877C327.721 532.673 339.64 525.628 360.77 512.23C391.522 492.73 399.146 482.863 439.052 470.781C469.377 461.14 492.459 460.725 524.506 455.786C568.361 449.027 627.832 446.478 627.832 446.478" stroke="black" stroke-width="0.25"/>
<path d="M198.302 609.465C198.302 609.465 233.321 586.47 255.758 571.369C273.661 559.32 285.999 554.851 302.742 541.675C322.064 526.471 335.579 521.19 356.709 507.792C387.462 488.292 388.62 476.888 430.471 464.78C460.881 455.368 486.702 457.369 518.749 452.43C564.695 445.349 622.175 440.276 622.175 440.276" stroke="black" stroke-width="0.25"/>
<path d="M192.791 603.424C192.791 603.424 226.609 579.24 249.046 564.139C266.949 552.09 280.487 548.81 297.231 535.634C316.553 520.43 331.623 516.868 352.753 503.469C383.506 483.969 378.368 471.067 422.113 458.936C452.605 449.746 481.094 454.1 513.141 449.16C561.123 441.765 616.663 434.235 616.663 434.235" stroke="black" stroke-width="0.25"/>
<path d="M187.428 597.544C187.428 597.544 220.077 572.203 242.515 557.102C260.417 545.053 275.124 542.93 291.867 529.755C311.189 514.55 327.774 512.661 348.904 499.262C379.657 479.762 368.389 465.402 413.979 453.247C444.551 444.274 475.636 450.918 507.683 445.979C557.648 438.278 611.3 428.356 611.3 428.356" stroke="black" stroke-width="0.25"/>
<path d="M182.21 591.826C182.21 591.826 213.724 565.359 236.161 550.258C254.064 538.209 269.907 537.212 286.65 524.036C305.972 508.832 324.029 508.569 345.159 495.171C375.912 475.671 358.683 459.893 406.066 447.715C436.717 438.951 470.327 447.823 502.374 442.884C554.267 434.886 606.083 422.637 606.083 422.637" stroke="black" stroke-width="0.25"/>
<path d="M177.141 586.268C177.141 586.268 207.549 558.707 229.986 543.607C247.889 531.558 264.837 531.654 281.58 518.478C300.902 503.274 320.391 504.592 341.521 491.194C372.273 471.694 349.251 454.538 398.377 442.338C429.103 433.779 465.168 444.815 497.215 439.876C550.982 431.589 601.013 417.079 601.013 417.079" stroke="black" stroke-width="0.25"/>
<path d="M172.218 580.872C172.218 580.872 201.554 552.249 223.991 537.148C241.894 525.099 259.914 526.258 276.657 513.082C295.979 497.878 316.857 500.731 337.987 487.333C368.74 467.833 340.092 449.338 390.911 437.117C421.711 428.756 460.159 441.894 492.206 436.955C547.792 428.389 596.09 411.683 596.09 411.683" stroke="black" stroke-width="0.25"/>
<path d="M167.442 575.636C167.442 575.636 195.738 545.983 218.175 530.882C236.078 518.833 255.139 521.022 271.882 507.847C291.204 492.642 313.43 496.985 334.56 483.586C365.313 464.087 331.207 444.294 383.668 432.052C414.54 423.884 455.3 439.061 487.346 434.122C544.698 425.283 591.315 406.448 591.315 406.448" stroke="black" stroke-width="0.25"/>
<path d="M162.812 570.562C162.812 570.562 190.1 539.91 212.537 524.81C230.44 512.761 250.509 515.948 267.252 502.772C286.574 487.568 310.107 493.354 331.237 479.956C361.989 460.456 322.595 439.405 376.647 427.143C407.588 419.161 450.588 436.315 482.635 431.376C541.697 422.273 586.685 401.373 586.685 401.373" stroke="black" stroke-width="0.25"/>
<path d="M158.331 565.649C158.331 565.649 184.643 534.03 207.08 518.93C224.983 506.881 246.028 511.035 262.771 497.859C282.093 482.655 306.891 489.839 328.021 476.44C358.774 456.94 314.257 434.671 369.85 422.389C400.858 414.588 446.029 433.656 478.075 428.717C538.794 419.359 582.204 396.46 582.204 396.46" stroke="black" stroke-width="0.25"/>
<path d="M153.996 560.897C153.996 560.897 179.363 528.343 201.8 513.242C219.703 501.193 241.692 506.283 258.436 493.107C277.758 477.903 303.779 486.438 324.909 473.04C355.662 453.54 306.192 430.093 363.275 417.792C394.348 410.165 441.617 431.084 473.664 426.145C535.985 416.54 577.868 391.708 577.868 391.708" stroke="black" stroke-width="0.25"/>
<path d="M149.808 556.305C149.808 556.305 174.262 522.848 196.699 507.747C214.602 495.698 237.504 501.691 254.247 488.516C273.569 473.311 300.773 483.153 321.903 469.755C352.656 450.255 298.4 425.669 356.923 413.35C388.058 405.892 437.355 428.599 469.401 423.66C533.27 413.817 573.68 387.117 573.68 387.117" stroke="black" stroke-width="0.25"/>
<path d="M145.767 551.876C145.767 551.876 169.341 517.546 191.778 502.446C209.68 490.397 233.463 497.261 250.206 484.086C269.528 468.881 297.873 479.983 319.003 466.585C349.755 447.085 290.881 421.401 350.794 409.064C381.99 401.769 433.243 426.202 465.289 421.263C530.652 411.189 569.639 382.687 569.639 382.687" stroke="black" stroke-width="0.25"/>
<path d="M141.873 547.607C141.873 547.607 164.599 512.438 187.036 497.337C204.939 485.288 229.569 492.993 246.313 479.817C265.635 464.613 295.078 476.929 316.208 463.531C346.961 444.031 283.637 417.288 344.889 404.934C376.143 397.797 429.281 423.892 461.327 418.953C528.129 408.657 565.745 378.418 565.745 378.418" stroke="black" stroke-width="0.25"/>
<path d="M138.125 543.499C138.125 543.499 160.035 507.521 182.472 492.42C200.375 480.371 225.822 488.885 242.565 475.709C261.887 460.505 292.389 473.99 313.519 460.591C344.271 441.091 276.665 413.33 339.205 400.96C370.515 393.973 425.467 421.668 457.514 416.729C525.701 406.22 561.998 374.31 561.998 374.31" stroke="black" stroke-width="0.25"/>
<path d="M134.525 539.553C134.525 539.553 155.65 502.798 178.087 487.697C195.99 475.648 222.222 484.938 238.965 471.763C258.287 456.558 289.805 471.166 310.935 457.768C341.687 438.268 269.967 409.528 333.745 397.142C365.109 390.3 421.804 419.533 453.85 414.594C523.368 403.88 558.398 370.364 558.398 370.364" stroke="black" stroke-width="0.25"/>
<path d="M131.072 535.767C131.072 535.767 151.444 498.267 173.882 483.166C191.784 471.117 218.768 481.152 235.511 467.977C254.833 452.772 287.326 468.457 308.456 455.059C339.209 435.559 263.542 405.88 328.507 393.479C359.923 386.777 418.289 417.484 450.336 412.545C521.13 401.634 554.944 366.578 554.944 366.578" stroke="black" stroke-width="0.25"/>
<path d="M127.765 532.142C127.765 532.142 147.418 493.929 169.855 478.829C187.757 466.779 215.461 477.528 232.205 464.352C251.527 449.148 284.953 465.864 306.083 452.465C336.835 432.965 257.391 402.388 323.492 389.972C354.958 383.403 414.925 415.522 446.971 410.583C518.987 399.484 551.637 362.953 551.637 362.953" stroke="black" stroke-width="0.25"/>
<path d="M124.605 528.679C124.605 528.679 143.57 489.784 166.007 474.684C183.909 462.635 212.302 474.065 229.045 460.889C248.367 445.685 282.685 463.386 303.815 449.987C334.567 430.488 251.512 399.051 318.701 386.622C350.213 380.18 411.709 413.648 443.756 408.709C516.94 397.43 548.478 359.49 548.478 359.49" stroke="black" stroke-width="0.25"/>
<path d="M121.593 525.377C121.593 525.377 139.901 485.832 162.338 470.731C180.241 458.682 209.29 470.762 226.033 457.587C245.355 442.382 280.523 461.023 301.653 447.624C332.406 428.124 245.908 395.869 314.132 383.427C345.69 377.107 408.644 411.861 440.691 406.922C514.988 395.471 545.466 356.188 545.466 356.188" stroke="black" stroke-width="0.25"/>
<path d="M118.727 522.235C118.727 522.235 136.411 482.073 158.848 466.972C176.751 454.923 206.424 467.621 223.167 454.446C242.489 439.241 278.466 458.775 299.596 445.377C330.349 425.877 240.577 392.843 309.786 380.388C341.386 374.183 405.728 410.161 437.775 405.222C513.131 393.608 542.6 353.047 542.6 353.047" stroke="black" stroke-width="0.25"/>
<path d="M116.009 519.255C116.009 519.255 133.1 478.506 155.537 463.405C173.44 451.356 203.705 464.641 220.448 451.465C239.77 436.261 276.515 456.643 297.645 443.244C328.397 423.744 235.519 389.971 305.663 377.504C337.304 371.409 402.962 408.548 435.008 403.609C511.369 391.84 539.881 350.066 539.881 350.066" stroke="black" stroke-width="0.25"/>
<path d="M113.437 516.436C113.437 516.436 129.969 475.132 152.406 460.031C170.308 447.982 201.134 461.822 217.877 448.646C237.199 433.442 274.669 454.626 295.799 441.227C326.552 421.727 230.735 387.255 301.763 374.777C333.442 368.786 400.345 407.022 432.392 402.083C509.703 390.168 537.31 347.247 537.31 347.247" stroke="black" stroke-width="0.25"/>
<path d="M111.013 513.778C111.013 513.778 127.016 471.951 149.453 456.85C167.355 444.801 198.709 459.164 215.452 445.988C234.774 430.784 272.929 452.724 294.059 439.325C324.812 419.826 226.224 384.694 298.085 372.205C329.801 366.312 397.878 405.584 429.924 400.645C508.132 388.591 534.885 344.589 534.885 344.589" stroke="black" stroke-width="0.25"/>
<path d="M108.735 511.281C108.735 511.281 124.242 468.963 146.679 453.862C164.581 441.813 196.431 456.667 213.174 443.491C232.496 428.287 271.294 450.937 292.424 437.539C323.177 418.039 221.986 382.288 294.631 369.79C326.381 363.988 395.56 404.232 427.606 399.293C506.656 387.11 532.607 342.092 532.607 342.092" stroke="black" stroke-width="0.25"/>
<path d="M106.603 508.945C106.603 508.945 121.646 466.167 144.083 451.066C161.986 439.017 194.3 454.331 211.043 441.155C230.365 425.951 269.764 449.266 290.894 435.867C321.647 416.367 218.021 380.038 291.398 367.53C323.181 361.814 393.391 402.968 425.438 398.029C505.274 385.724 530.476 339.756 530.476 339.756" stroke="black" stroke-width="0.25"/>
<path d="M104.62 506.771C104.62 506.771 119.23 463.564 141.668 448.464C159.57 436.415 192.316 452.156 209.06 438.981C228.382 423.776 268.341 447.71 289.471 434.311C320.223 414.811 214.331 377.942 288.39 365.426C320.202 359.79 391.373 401.791 423.419 396.852C503.989 384.435 528.492 337.582 528.492 337.582" stroke="black" stroke-width="0.25"/>
<path d="M102.783 504.757C102.783 504.757 116.993 461.154 139.43 446.054C157.333 434.005 190.48 450.143 207.223 436.967C226.545 421.763 267.022 446.269 288.152 432.87C318.905 413.371 210.913 376.002 285.604 363.478C317.443 357.916 389.503 400.701 421.55 395.762C502.799 383.24 526.656 335.568 526.656 335.568" stroke="black" stroke-width="0.25"/>
<path d="M101.094 502.904C101.094 502.904 114.936 458.937 137.373 443.837C155.276 431.788 188.79 448.29 205.533 435.115C224.855 419.91 265.81 444.943 286.94 431.545C317.693 412.045 207.77 374.217 283.042 361.685C314.906 356.192 387.784 399.699 419.831 394.76C501.705 382.141 524.966 333.716 524.966 333.716" stroke="black" stroke-width="0.25"/>
<path d="M99.5502 501.213C99.5502 501.213 113.056 456.913 135.493 441.813C153.396 429.764 187.247 446.599 203.99 433.424C223.312 418.219 264.702 443.733 285.832 430.335C316.585 410.835 204.899 372.588 280.701 360.049C312.589 354.618 386.214 398.784 418.26 393.845C500.704 381.138 523.423 332.024 523.423 332.024" stroke="black" stroke-width="0.25"/>
<path d="M98.1542 499.683C98.1542 499.683 111.356 455.082 133.793 439.981C151.696 427.932 185.851 445.068 202.594 431.893C221.916 416.688 263.7 442.638 284.83 429.24C315.583 409.74 202.302 371.113 278.584 358.568C310.492 353.193 384.793 397.955 416.84 393.016C499.8 380.23 522.027 330.494 522.027 330.494" stroke="black" stroke-width="0.25"/>
<path d="M96.9052 498.313C96.9052 498.313 109.835 453.442 132.272 438.342C150.175 426.293 184.602 443.699 201.345 430.523C220.667 415.319 262.804 441.658 283.934 428.26C314.686 408.76 199.978 369.794 276.689 357.243C308.617 351.918 383.522 397.214 415.569 392.275C498.99 379.418 520.778 329.124 520.778 329.124" stroke="black" stroke-width="0.25"/>
<path d="M95.8027 497.105C95.8027 497.105 108.492 451.997 130.929 436.896C148.832 424.847 183.499 442.491 200.242 429.315C219.564 414.111 262.012 440.794 283.142 427.395C313.895 407.895 197.927 368.63 275.017 356.075C306.961 350.794 382.4 396.56 414.447 391.621C498.276 378.701 519.675 327.916 519.675 327.916" stroke="black" stroke-width="0.25"/>
<path d="M94.8476 496.058C94.8476 496.058 107.329 450.744 129.766 435.643C147.669 423.594 182.544 441.444 199.287 428.268C218.609 413.064 261.327 440.045 282.457 426.646C313.209 407.146 196.15 367.621 273.569 355.062C305.527 349.82 381.428 395.994 413.475 391.055C497.657 378.081 518.72 326.869 518.72 326.869" stroke="black" stroke-width="0.25"/>
<path d="M94.04 495.172C94.04 495.172 106.345 449.683 128.782 434.583C146.685 422.534 181.736 440.558 198.48 427.382C217.802 412.178 260.747 439.411 281.877 426.012C312.63 406.512 194.647 366.767 272.344 354.205C304.314 348.995 380.606 395.514 412.653 390.575C497.134 377.555 517.912 325.983 517.912 325.983" stroke="black" stroke-width="0.25"/>
<path d="M93.3779 494.447C93.3779 494.447 105.539 448.816 127.976 433.715C145.879 421.666 181.074 439.833 197.818 426.657C217.139 411.453 260.272 438.892 281.402 425.493C312.154 405.994 193.416 366.069 271.34 353.503C303.32 348.32 379.933 395.122 411.979 390.183C496.704 377.125 517.25 325.258 517.25 325.258" stroke="black" stroke-width="0.25"/>
<path d="M92.8642 493.883C92.8642 493.883 104.914 448.141 127.351 433.04C145.253 420.991 180.561 439.269 197.304 426.094C216.626 410.889 259.903 438.489 281.033 425.09C311.786 405.59 192.46 365.526 270.561 352.958C302.548 347.796 379.41 394.817 411.457 389.878C496.372 376.791 516.737 324.695 516.737 324.695" stroke="black" stroke-width="0.25"/>
<path d="M92.497 493.481C92.497 493.481 104.466 447.659 126.903 432.558C144.806 420.509 180.193 438.866 196.937 425.691C216.259 410.486 259.64 438.2 280.77 424.802C311.522 405.302 191.776 365.138 270.004 352.568C301.997 347.421 379.036 394.598 411.083 389.659C496.134 376.552 516.369 324.292 516.369 324.292" stroke="black" stroke-width="0.25"/>
<path d="M92.2763 493.239C92.2763 493.239 104.198 447.37 126.635 432.269C144.537 420.22 179.973 438.625 196.716 425.449C216.038 410.245 259.481 438.028 280.611 424.629C311.364 405.129 191.366 364.905 269.669 352.334C301.666 347.196 378.812 394.468 410.858 389.529C495.991 376.408 516.149 324.05 516.149 324.05" stroke="black" stroke-width="0.25"/>
</g>
<defs>
<clipPath id="clip0_3_2">
<rect width="352" height="495" fill="white"/>
</clipPath>
</defs>
</svg>
